<?xml version="1.0" encoding="UTF-8"?><svg id="Layer_2" xmlns="http://www.w3.org/2000/svg" viewBox="0 0 1133.86 289.57"><defs><style>.cls-1{fill:none;}.cls-1,.cls-2{stroke-width:0px;}</style></defs><g id="Layer_1-2"><path class="cls-2" d="m269.8,159.35l.51,25.52h-13.02l.63-24.38-.63-56.73h13.14l-.63,55.59Zm14.53-17.43c9.77,13.14,20.93,26.53,33.48,40.17l-.12,1.52c-3.71,1.01-7.88,1.81-12.51,2.4l-1.64-.76c-12.81-15.67-23.67-29.9-32.6-42.7v-.88l25.26-30.57,5.05-7.33h14.28l-31.21,38.16Z"/><path class="cls-2" d="m365.25,133.13c4.42,5.1,6.63,12.32,6.63,21.67,0,10.03-2.36,17.73-7.08,23.12-4.72,5.39-11.41,8.09-20.09,8.09-8.17,0-14.46-2.55-18.89-7.64s-6.63-12.32-6.63-21.67c0-10.02,2.36-17.73,7.08-23.12,4.72-5.39,11.41-8.09,20.09-8.09,8.17,0,14.47,2.55,18.89,7.64Zm-34.05,20.78c0,7.92,1.18,13.77,3.54,17.56,2.36,3.79,5.98,5.68,10.87,5.68s8.38-1.6,10.74-4.8c2.35-3.2,3.54-8.09,3.54-14.65,0-7.92-1.18-13.77-3.54-17.56-2.36-3.79-5.94-5.68-10.74-5.68-9.6,0-14.41,6.49-14.41,19.46Z"/><path class="cls-2" d="m422.67,146.59c.09-3.2-.65-5.7-2.21-7.52-1.56-1.81-3.81-2.72-6.76-2.72-4.8,0-9.86,2.53-15.16,7.58l-.25,15.28.88,25.65h-12.89l.89-24.51-.76-63.17,12.89-1.01-.63,38.66h.75c4.97-4.38,10.15-7.37,15.54-8.97,6.49,0,11.39,1.47,14.72,4.42,3.33,2.95,4.94,7.16,4.86,12.64l-.25,16.42.5,25.52h-12.89l.76-38.28Z"/><path class="cls-2" d="m481.42,172.87l1.26.88-1.26,8.09c-4.64,2.19-8.93,3.45-12.89,3.79-5.22-.84-9.01-2.59-11.37-5.24-2.36-2.65-3.54-6.51-3.54-11.56l.51-9.1-.13-24.64h-7.96l-.51-.76.64-7.45h7.71v-9.23l11.37-4.29,1.13,1.01-.25,12.51h16.17l.51.88-.64,7.33h-16.3l-.63,31.71c-.09,3.12.44,5.29,1.58,6.51,1.13,1.22,3.05,1.83,5.75,1.83s5.73-.76,8.85-2.27Z"/><path class="cls-2" d="m505.93,159.22l.88,25.65h-12.89l.89-24.51-.76-63.17,12.89-1.01-1.01,63.04Z"/><path class="cls-2" d="m560.13,129.65c3.37,2.78,5.05,6.66,5.05,11.63,0,1.51-.25,6.57-.76,15.16-.5,8.42-.76,13.35-.76,14.78,0,1.6.28,2.71.82,3.35.55.63,1.49.95,2.84.95.84,0,2.11-.17,3.79-.51l1.14.89-1.26,7.08c-2.44,1.51-5.1,2.44-7.96,2.78-2.61-.25-4.72-1.2-6.32-2.84-1.6-1.64-2.57-3.81-2.9-6.51h-.89c-4.29,4.55-8.67,7.71-13.14,9.48-5.81-.09-10.38-1.6-13.7-4.55-3.33-2.95-4.99-6.95-4.99-12.01,0-7.49,4.09-12.17,12.26-14.02l19.96-4.42.13-6.82c0-3.11-.78-5.47-2.34-7.07-1.56-1.6-3.81-2.4-6.76-2.4s-5.73.65-8.59,1.96c-2.86,1.31-6.02,3.35-9.47,6.13l-1.01-.64-1.64-8.97c7.41-5.05,14.99-7.58,22.74-7.58,5.81,0,10.4,1.39,13.77,4.17Zm-23.25,32.6c-1.51.34-2.61.91-3.28,1.71s-1.01,2.04-1.01,3.73c0,2.53.69,4.51,2.08,5.94,1.39,1.43,3.26,2.15,5.62,2.15,3.96,0,8.17-2.57,12.63-7.71l.38-9.73-16.42,3.91Z"/><path class="cls-2" d="m610.79,146.97v8.09l-30.32,4.55-1.14-1.13v-8.09l30.32-4.42,1.14,1.01Z"/><path class="cls-2" d="m639.59,158.08l.25,11.75c0,6.57-1.7,11.98-5.12,16.23-3.41,4.25-9.33,8.23-17.75,11.94l-4.55-7.2v-1.39c5.64-2.95,9.62-5.83,11.94-8.65,2.32-2.82,3.47-6.46,3.47-10.93v-10.49l-.51-45.48-14.78.13-1.13-1.01.75-9.23h28.18l-.76,54.33Z"/><path class="cls-2" d="m692.66,129.65c3.37,2.78,5.05,6.66,5.05,11.63,0,1.51-.25,6.57-.76,15.16-.5,8.42-.76,13.35-.76,14.78,0,1.6.28,2.71.82,3.35.55.63,1.49.95,2.84.95.84,0,2.11-.17,3.79-.51l1.14.89-1.26,7.08c-2.44,1.51-5.1,2.44-7.96,2.78-2.61-.25-4.72-1.2-6.32-2.84s-2.57-3.81-2.9-6.51h-.89c-4.29,4.55-8.67,7.71-13.14,9.48-5.81-.09-10.38-1.6-13.7-4.55-3.33-2.95-4.99-6.95-4.99-12.01,0-7.49,4.09-12.17,12.26-14.02l19.96-4.42.13-6.82c0-3.11-.78-5.47-2.34-7.07-1.56-1.6-3.81-2.4-6.76-2.4s-5.73.65-8.59,1.96c-2.86,1.31-6.02,3.35-9.47,6.13l-1.01-.64-1.64-8.97c7.41-5.05,14.99-7.58,22.74-7.58,5.81,0,10.4,1.39,13.77,4.17Zm-20.41-26.97c1.14,1.14,1.71,2.68,1.71,4.61,0,2.11-.61,3.79-1.83,5.05-1.22,1.26-2.85,1.89-4.87,1.89s-3.71-.57-4.8-1.7c-1.1-1.14-1.64-2.72-1.64-4.74s.61-3.77,1.83-4.99c1.22-1.22,2.88-1.83,4.99-1.83,1.94,0,3.48.56,4.61,1.7Zm-2.84,59.57c-1.51.34-2.61.91-3.28,1.71s-1.01,2.04-1.01,3.73c0,2.53.69,4.51,2.08,5.94,1.39,1.43,3.26,2.15,5.62,2.15,3.96,0,8.17-2.57,12.63-7.71l.38-9.73-16.42,3.91Zm23.63-59.57c1.09,1.14,1.64,2.68,1.64,4.61,0,2.11-.61,3.79-1.83,5.05-1.22,1.26-2.84,1.89-4.86,1.89s-3.6-.57-4.74-1.7c-1.13-1.14-1.7-2.72-1.7-4.74s.61-3.77,1.83-4.99c1.22-1.22,2.89-1.83,4.99-1.83s3.58.56,4.67,1.7Z"/><path class="cls-2" d="m748.62,126.75v12.25l-1.39.38c-1.35-.42-2.9-.63-4.67-.63-2.61,0-5.05.97-7.33,2.91-2.27,1.94-4.47,5.05-6.57,9.35l-.12,8.34.76,25.52h-12.89l.88-24.38-.75-32.98,12.25-1.14-.13,11.62h.89c2.27-4.04,4.8-6.97,7.58-8.78,2.78-1.81,5.56-2.71,8.34-2.71.93,0,1.98.09,3.16.25Z"/><path class="cls-2" d="m766.44,134.84l10.87,37.65h.88l13.01-37.02,2.02-8.85h11.37l-20.59,58.24h-13.77l-17.43-57.99,12-.64,1.64,8.59Z"/><path class="cls-2" d="m855.63,156.31l-35.5.13c.09,6.4,1.64,11.27,4.67,14.59,3.03,3.33,7.33,4.99,12.89,4.99s11.5-1.72,17.05-5.18l1.26.75-1.89,10.36c-6.15,2.7-12.13,4.04-17.94,4.04-8.67,0-15.47-2.68-20.4-8.02-4.93-5.35-7.39-12.66-7.39-21.92s2.44-16.76,7.33-22.24c4.88-5.48,11.5-8.21,19.84-8.21,7.08,0,12.53,1.94,16.36,5.81,3.83,3.88,5.75,9.35,5.75,16.42,0,1.94-.21,4.26-.63,6.95l-1.39,1.52Zm-9.6-9.98c0-3.96-.91-6.95-2.71-8.97-1.81-2.02-4.45-3.03-7.9-3.03-3.88,0-7.08,1.24-9.6,3.73-2.52,2.49-4.21,6-5.05,10.55l25.02-.51.25-1.77Z"/><path class="cls-2" d="m904.28,159.22l.88,25.65h-12.89l.89-24.51-.76-63.17,12.89-1.01-1.01,63.04Z"/><path class="cls-2" d="m935.6,101.29c1.18,1.22,1.77,2.93,1.77,5.12s-.63,4.09-1.9,5.43c-1.26,1.35-2.99,2.02-5.18,2.02s-3.9-.63-5.12-1.89c-1.22-1.26-1.83-2.99-1.83-5.18s.65-3.96,1.96-5.31c1.3-1.35,3.09-2.02,5.37-2.02,2.1,0,3.74.61,4.93,1.83Zm-10.99,59.19l-.38-32.98,12.63-1.14-.5,32.98.38,25.52h-12.64l.51-24.38Z"/><path class="cls-2" d="m991.83,146.59c.08-3.2-.65-5.7-2.21-7.52-1.56-1.81-3.82-2.72-6.76-2.72-4.88,0-9.94,2.53-15.16,7.58l-.12,15.41.76,25.52h-12.89l.76-24.38-.63-32.98,12.25-1.14-.13,8.47h.89c4.97-4.38,10.15-7.37,15.54-8.97,6.48,0,11.39,1.47,14.72,4.42,3.33,2.95,4.95,7.16,4.86,12.64l-.38,16.42.64,25.52h-13.02l.89-38.28Z"/><path class="cls-2" d="m1056.64,146.59c.08-3.2-.65-5.7-2.21-7.52-1.56-1.81-3.82-2.72-6.76-2.72-4.88,0-9.94,2.53-15.16,7.58l-.12,15.41.76,25.52h-12.89l.76-24.38-.63-32.98,12.25-1.14-.13,8.47h.89c4.97-4.38,10.15-7.37,15.54-8.97,6.48,0,11.39,1.47,14.72,4.42,3.33,2.95,4.95,7.16,4.86,12.64l-.38,16.42.64,25.52h-13.02l.89-38.28Z"/><path class="cls-2" d="m192.83,64.72h-127.15c-.33,0-.59.26-.59.59v95.39c.01,35.37,28.8,64.14,64.17,64.14s64.17-28.78,64.17-64.17v-95.36c0-.33-.27-.59-.59-.59Zm-16.18,87.91c-6.13,3.22-6.53,3.55-9.05,7.48-1.45,2.26-3.56,5.83-4.68,7.92-2.26,4.19-5.52,6.84-9.8,7.98-2.6.69-7.53,6.24-7.53,8.06,0,.27-.44,1.59.5,3.22.8,1.4,2.22,3.54,2.22,3.54l15.36,23.3c-9.92,6.4-21.73,10.11-34.41,10.11-35.1,0-63.56-28.45-63.57-63.55v-95.39s17.09,26,17.35,26.36c3.94,5.46,3.62,5.28,9.2,1.27,1.96-1.41,5.13-2.53,12.91-4.08,3.2-.64,3.75-1.02,8.35-5.82,6.34-6.62,9.47-8.48,16.49-9.8,4.01-.75,5.97-1.45,7.21-2.54l1.71-1.5v1.47c0,2.74-5.98,7.12-11.8,8.65-1.83.48-6.38,5.58-8.52,9.56-4.52,8.4-5.09,9.02-10.93,11.94-3.95,1.97-6.09,3.47-7.62,5.34-1.17,1.43-2.12,2.92-2.12,3.3,0,1.6.89,1.41,2.61-.55,2.01-2.29,8.09-4.66,11.97-4.66,3.04,0,6.65-2.58,11.5-8.23,2.24-2.6,5.02-5.25,6.18-5.88,1.16-.63,4.49-1.57,7.39-2.1,7.02-1.27,8.81-1.99,9.81-3.92l.84-1.62.02,1.66c.05,3.21-1.09,4.56-5.75,6.8-2.46,1.19-5.06,2.34-5.78,2.55-.72.22-2.63,1.49-4.24,2.82-2.43,2.01-3.42,3.5-5.8,8.69-1.58,3.45-3.37,6.74-3.99,7.32-.62.58-3.95,2.45-7.4,4.16-5.28,2.6-6.44,3.43-7.23,5.17-.53,1.16-.76,2.55-.53,3.17.36.98.59.87,1.89-.88,2-2.68,3.69-3.49,9.88-4.75,2.9-.59,6.01-1.46,6.91-1.93.9-.47,4.08-3.29,7.05-6.25,2.97-2.96,5.98-5.71,6.67-6.1,1.04-.58,5.66-1.83,12.84-3.47.7-.16,2.08-1,3.07-1.88l1.8-1.59v1.57c0,2.23-3.39,5.56-6.52,6.41-3.78,1.02-8.32,4-10.64,6.97-1.13,1.44-3.09,4.99-4.36,7.88-2.54,5.75-2.11,5.35-12.64,11.8-5.31,3.24-7.32,5.53-6.6,7.48.36.97.66.85,2.58-1.07,1.2-1.19,3.23-2.46,4.52-2.82,10.26-2.85,12.87-4.28,18.15-9.93,4.66-4.98,7.74-6.84,13.12-7.92,4.28-.86,9.34-3.04,10.52-4.53,1.18-1.49,1.86-.66,1.16,1.42-.91,2.74-3.95,5.15-8.89,7.03-5.75,2.19-10.09,6.66-12.11,12.46-1.94,5.58-4.94,8.84-9.99,10.85-2.27.91-4.9,2.33-5.84,3.16-2.48,2.18-4.24,4.99-3.83,6.1.29.78.77.57,2.58-1.14,1.74-1.65,3.34-2.39,7.32-3.41,7.21-1.84,8.51-2.64,15.38-9.39,6.67-6.56,6.74-6.6,18.55-9.45,3.89-.94,4.71-1.37,5.7-2.99,1.11-1.82,1.16-1.83,1.17-.41.02,2.6-2.72,5.45-7.79,8.11-6.95,3.65-7.53,4.18-12.52,11.73-6.41,9.69-8.19,11.55-12.9,13.52-4.86,2.03-7.04,3.82-7.74,6.38-.7,2.55.03,2.94,1.78.95,1.76-2,5.53-3.85,7.88-3.87,3.74-.03,8.96-2.86,13.93-7.54,2.63-2.48,6.23-5.5,8-6.71,3.2-2.19,8.89-4.14,12.09-4.15,2.13,0,5.36-2.05,6.05-3.83.52-1.36.53-1.36.55.16.04,3.32-2.81,6.23-9.63,9.8Z"/><rect class="cls-1" width="1133.86" height="289.57"/></g></svg>