<?xml version="1.0" encoding="UTF-8"?><svg id="Layer_2" xmlns="http://www.w3.org/2000/svg" viewBox="0 0 249.45 249.45"><defs><style>.cls-1{fill:none;}.cls-1,.cls-2{stroke-width:0px;}.cls-2{fill:#231f20;}</style></defs><g id="Layer_1-2"><rect class="cls-1" width="249.45" height="249.45"/><path class="cls-2" d="m188.3,44.72H61.15c-.33,0-.59.26-.59.59v95.39c.01,35.37,28.8,64.14,64.17,64.14s64.17-28.78,64.17-64.17V45.31c0-.33-.27-.59-.59-.59Zm-16.18,87.91c-6.13,3.22-6.53,3.55-9.05,7.48-1.45,2.26-3.56,5.83-4.68,7.92-2.26,4.19-5.52,6.84-9.8,7.98-2.6.69-7.53,6.24-7.53,8.06,0,.27-.44,1.59.5,3.22.8,1.4,2.22,3.54,2.22,3.54l15.36,23.3c-9.92,6.4-21.73,10.11-34.41,10.11-35.1,0-63.56-28.45-63.57-63.55V45.31s17.09,26,17.35,26.36c3.94,5.46,3.62,5.28,9.2,1.27,1.96-1.41,5.13-2.53,12.91-4.08,3.2-.64,3.75-1.02,8.35-5.82,6.34-6.62,9.47-8.48,16.49-9.8,4.01-.75,5.97-1.45,7.21-2.54l1.71-1.5v1.47c0,2.74-5.98,7.12-11.8,8.65-1.83.48-6.38,5.58-8.52,9.56-4.52,8.4-5.09,9.02-10.93,11.94-3.95,1.97-6.09,3.47-7.62,5.34-1.17,1.43-2.12,2.92-2.12,3.3,0,1.6.89,1.41,2.61-.55,2.01-2.29,8.09-4.66,11.97-4.66,3.04,0,6.65-2.58,11.5-8.23,2.24-2.6,5.02-5.25,6.18-5.88,1.16-.63,4.49-1.57,7.39-2.1,7.02-1.27,8.81-1.99,9.81-3.92l.84-1.62.02,1.66c.05,3.21-1.09,4.56-5.75,6.8-2.46,1.19-5.06,2.34-5.78,2.55-.72.22-2.63,1.49-4.24,2.82-2.43,2.01-3.42,3.5-5.8,8.69-1.58,3.45-3.37,6.74-3.99,7.32-.62.58-3.95,2.45-7.4,4.16-5.28,2.6-6.44,3.43-7.23,5.17-.53,1.16-.76,2.55-.53,3.17.36.98.59.87,1.89-.88,2-2.68,3.69-3.49,9.88-4.75,2.9-.59,6.01-1.46,6.91-1.93.9-.47,4.08-3.29,7.05-6.25,2.97-2.96,5.98-5.71,6.67-6.1,1.04-.58,5.66-1.83,12.84-3.47.7-.16,2.08-1,3.07-1.88l1.8-1.59v1.57c0,2.23-3.39,5.56-6.52,6.41-3.78,1.02-8.32,4-10.64,6.97-1.13,1.44-3.09,4.99-4.36,7.88-2.54,5.75-2.11,5.35-12.64,11.8-5.31,3.24-7.32,5.53-6.6,7.48.36.97.66.85,2.58-1.07,1.2-1.19,3.23-2.46,4.52-2.82,10.26-2.85,12.87-4.28,18.15-9.93,4.66-4.98,7.74-6.84,13.12-7.92,4.28-.86,9.34-3.04,10.52-4.53,1.18-1.49,1.86-.66,1.16,1.42-.91,2.74-3.95,5.15-8.89,7.03-5.75,2.19-10.09,6.66-12.11,12.46-1.94,5.58-4.94,8.84-9.99,10.85-2.27.91-4.9,2.33-5.84,3.16-2.48,2.18-4.24,4.99-3.83,6.1.29.78.77.57,2.58-1.14,1.74-1.65,3.34-2.39,7.32-3.41,7.21-1.84,8.51-2.64,15.38-9.39,6.67-6.56,6.74-6.6,18.55-9.45,3.89-.94,4.71-1.37,5.7-2.99,1.11-1.82,1.16-1.83,1.17-.41.02,2.6-2.72,5.45-7.79,8.11-6.95,3.65-7.53,4.18-12.52,11.73-6.41,9.69-8.19,11.55-12.9,13.52-4.86,2.03-7.04,3.82-7.74,6.38-.7,2.55.03,2.94,1.78.95,1.76-2,5.53-3.85,7.88-3.87,3.74-.03,8.96-2.86,13.93-7.54,2.63-2.48,6.23-5.5,8-6.71,3.2-2.19,8.89-4.14,12.09-4.15,2.13,0,5.36-2.05,6.05-3.83.52-1.36.53-1.36.55.16.04,3.32-2.81,6.23-9.63,9.8Z"/></g></svg>